<?xml version="1.0" encoding="UTF-8"?>
<svg xmlns="http://www.w3.org/2000/svg" xmlns:xlink="http://www.w3.org/1999/xlink" width="18px" height="18px" viewBox="0 0 18 18" version="1.1">
<g id="surface1">
<path style=" stroke:none;fill-rule:nonzero;fill:rgb(50.196078%,0%,50.196078%);fill-opacity:1;" d="M 9 1.5 C 4.859375 1.5 1.5 4.859375 1.5 9 C 1.5 13.140625 4.859375 16.5 9 16.5 C 13.140625 16.5 16.5 13.140625 16.5 9 C 16.5 4.859375 13.140625 1.5 9 1.5 Z M 9 3.75 C 10.246094 3.75 11.25 4.753906 11.25 6 C 11.25 7.246094 10.246094 8.25 9 8.25 C 7.753906 8.25 6.75 7.246094 6.75 6 C 6.75 4.753906 7.753906 3.75 9 3.75 Z M 9 14.398438 C 7.125 14.398438 5.46875 13.441406 4.5 11.984375 C 4.523438 10.492188 7.5 9.675781 9 9.675781 C 10.492188 9.675781 13.476562 10.492188 13.5 11.984375 C 12.53125 13.441406 10.875 14.398438 9 14.398438 Z M 9 14.398438 "/>
</g>
</svg>
